<svg width="9" height="30" viewBox="0 0 9 30" fill="none" xmlns="http://www.w3.org/2000/svg">
<path fill-rule="evenodd" clip-rule="evenodd" d="M4.28667 20.4874C5.84641 20.5023 7.36518 21.4391 8.06929 22.8342C8.65608 23.9966 8.66883 25.4298 8.1035 26.6025C7.2961 28.2776 5.31623 29.312 3.42686 28.9373C2.13573 28.6811 0.987579 27.7899 0.415047 26.6025C-0.145876 25.4392 -0.138202 24.0159 0.437853 22.8572C1.13607 21.4527 2.63659 20.5026 4.23187 20.4874H4.28647H4.28667ZM4.28689 10.2437C5.84753 10.2588 7.36607 11.1976 8.06929 12.5903C8.65608 13.7529 8.66882 15.1861 8.1035 16.3588C7.29609 18.0339 5.31623 19.0683 3.42685 18.6935C2.13572 18.4374 0.987572 17.5462 0.41504 16.3588C-0.145882 15.1955 -0.138209 13.7722 0.437846 12.6135C1.13472 11.2116 2.63681 10.2591 4.23163 10.2437H4.28689H4.28689ZM4.28667 0C5.84597 0.0149109 7.36602 0.953864 8.06929 2.34654C8.65608 3.50918 8.66883 4.94239 8.1035 6.11513C7.29873 7.78473 5.33661 8.81623 3.45296 8.45488C2.14931 8.2049 0.990666 7.30892 0.415272 6.11513C-0.145651 4.95204 -0.137977 3.52849 0.438077 2.36978C1.13473 0.968347 2.64776 0.0151567 4.23209 0H4.28669H4.28667Z" fill="white"/>
</svg>
