<svg xmlns="http://www.w3.org/2000/svg" width="25.385" height="31.627" viewBox="0 0 25.385 31.627">
  <g id="Group_3549" data-name="Group 3549" transform="translate(-1879.5 -1238)">
    <path id="Path" d="M23.973,30.726H17.092a4.282,4.282,0,0,1-2.7-1.09L6.8,22.162a2.006,2.006,0,0,1-.112-2.734L22.076,1.715,16.8,1.7h0a2.4,2.4,0,0,0-1.529.7l-7.6,8.874a1.244,1.244,0,0,1-1.379.526,1.142,1.142,0,0,1-.721-1.232V1.907a.547.547,0,0,0-.56-.53H2.013a.547.547,0,0,0-.561.53V28.819a.547.547,0,0,0,.561.53h5.92v1.377H2.013A1.963,1.963,0,0,1,0,28.819V1.907A1.963,1.963,0,0,1,2.013,0H5.006A1.963,1.963,0,0,1,7.017,1.907V9.84l7.122-8.309A3.844,3.844,0,0,1,16.8.333h0L22.329.34a1.345,1.345,0,0,1,1.322.674,1.22,1.22,0,0,1-.294,1.392L7.806,20.3a.691.691,0,0,0,.037.9l7.595,7.474a2.841,2.841,0,0,0,1.654.667h6.515l-9-9.281,1.069-.931,9.255,9.537a1.193,1.193,0,0,1,.366,1.377A1.324,1.324,0,0,1,23.973,30.726Z" transform="translate(1879.5 1238)" fill="currentColor"/>
    <path id="Path-2" data-name="Path" d="M1.064,3.172A1.746,1.746,0,0,1,.135,2.29,1.594,1.594,0,0,1,0,1.649,1.628,1.628,0,0,1,.135,1,1.746,1.746,0,0,1,.511.48,1.692,1.692,0,0,1,1.064.129,1.814,1.814,0,0,1,1.739,0a1.859,1.859,0,0,1,.68.129A1.673,1.673,0,0,1,3.342,1a1.6,1.6,0,0,1,.137.644,1.566,1.566,0,0,1-.137.64,1.593,1.593,0,0,1-.37.523,1.851,1.851,0,0,1-.552.356,1.887,1.887,0,0,1-.68.128,1.848,1.848,0,0,1-.676-.128" transform="translate(1885.813 1266.331)" fill="currentColor"/>
    <path id="Path-3" data-name="Path" d="M2.878.855.9,2.73c-.325.309-.376.026-.376.026L.006.321S-.074-.068.334.01L2.908.5S3.181.568,2.878.855Z" transform="translate(1893.715 1256.748)" fill="currentColor"/>
  </g>
</svg>
